<svg width="258" height="323" viewBox="0 0 258 323" fill="none" xmlns="http://www.w3.org/2000/svg">
<g clip-path="url(#clip0_333_318)">
<path d="M151.172 198.247V205.269C151.281 207.681 152.339 209.952 154.115 211.586C155.891 213.22 158.24 214.083 160.649 213.988H191.958C193.028 213.988 194.053 213.562 194.809 212.805C195.565 212.048 195.99 211.021 195.99 209.95C195.99 208.879 195.565 207.852 194.809 207.095C194.053 206.338 193.028 205.913 191.958 205.913H160.649C159.707 205.913 159.234 205.392 159.234 205.269V198.247C159.391 198.022 159.605 197.844 159.854 197.731C160.103 197.617 160.378 197.574 160.649 197.604H176.304C178.537 197.555 180.751 197.183 182.876 196.497L188.724 194.456C189.995 194.067 191.312 193.847 192.64 193.8H217.825C218.587 193.864 219.324 194.105 219.977 194.505L235.552 207.201L211.861 231.771L207.84 228.418C207.116 227.814 206.203 227.484 205.261 227.484H157.28C156.276 227.415 155.297 227.143 154.402 226.686L129.451 211.175C128.706 210.642 128.078 209.962 127.606 209.176L121.193 195.819H130.206C130.47 195.842 130.728 195.903 130.974 195.999C132.485 197.367 133.841 198.897 135.019 200.56L138.466 204.977C138.843 205.46 139.325 205.851 139.876 206.12C140.426 206.389 141.03 206.529 141.643 206.529H143.176C143.143 206.111 143.109 205.694 143.109 205.269V198.247C143.109 198.11 143.127 197.978 143.131 197.843L141.371 195.588C137.519 190.65 135.718 189.22 134.196 188.593C132.933 188.058 131.578 187.77 130.206 187.744H117.526C116.526 187.707 115.534 187.928 114.644 188.388C113.755 188.847 112.999 189.528 112.45 190.366C111.95 191.179 111.668 192.107 111.632 193.061C111.596 194.015 111.806 194.962 112.243 195.81L120.337 212.672C121.479 214.844 123.152 216.69 125.201 218.038L150.156 233.55C152.329 234.796 154.776 235.487 157.28 235.559H203.802L206.677 237.955C205.743 239.882 205.423 242.05 205.762 244.164C206.1 246.279 207.08 248.238 208.568 249.776L213.886 255.179C214.258 255.556 214.7 255.857 215.188 256.063C215.676 256.269 216.199 256.377 216.728 256.381C217.258 256.385 217.783 256.284 218.273 256.084C218.763 255.885 219.21 255.591 219.587 255.218C219.964 254.846 220.264 254.403 220.47 253.915C220.675 253.426 220.783 252.902 220.787 252.372C220.791 251.842 220.69 251.316 220.491 250.825C220.292 250.334 219.998 249.886 219.626 249.509L214.31 244.107C213.896 243.672 213.663 243.095 213.66 242.494C213.657 241.893 213.883 241.313 214.292 240.873L245.012 209.014C245.321 208.631 245.723 208.335 246.181 208.156C246.638 207.978 247.135 207.922 247.62 207.994L251.396 211.129C251.803 211.468 252.274 211.724 252.78 211.881C253.286 212.038 253.818 212.094 254.346 212.045C254.874 211.996 255.386 211.843 255.855 211.595C256.324 211.347 256.739 211.009 257.077 210.601C257.415 210.192 257.67 209.721 257.826 209.213C257.982 208.706 258.037 208.173 257.987 207.645C257.937 207.116 257.784 206.603 257.536 206.134C257.288 205.665 256.95 205.249 256.541 204.911L252.762 201.776C251.135 200.566 249.169 199.899 247.143 199.87C245.117 199.841 243.133 200.452 241.473 201.615L225.069 188.244C222.977 186.665 220.443 185.784 217.825 185.725H192.64C190.408 185.774 188.194 186.146 186.069 186.831L180.219 188.872C178.948 189.262 177.632 189.483 176.304 189.529H160.649C158.24 189.433 155.891 190.297 154.115 191.93C152.339 193.563 151.281 195.834 151.172 198.247Z" fill="#A93A63"/>
<path d="M78.615 72.5725L99.5862 92.4249C100.57 93.3575 101.873 93.8756 103.228 93.872H103.243C104.618 93.8722 105.938 93.3317 106.918 92.3668L127.331 72.3321C129.158 70.5595 130.606 68.4326 131.586 66.0812C132.565 63.7297 133.057 61.203 133.029 58.6552C133.006 56.0697 132.458 53.5158 131.418 51.1494C130.378 48.7829 128.867 46.6534 126.978 44.8907C123.741 41.8811 119.621 39.9965 115.23 39.5162C110.838 39.0359 106.41 39.9855 102.6 42.2242C98.7741 40.0107 94.3356 39.0976 89.9484 39.6214C85.5613 40.1453 81.4616 42.0779 78.2627 45.1302C76.4352 46.9028 74.9875 49.0297 74.0078 51.3811C73.0281 53.7325 72.5369 56.2592 72.5642 58.807C72.5868 61.3927 73.135 63.9467 74.1753 66.3134C75.2156 68.68 76.7262 70.8097 78.615 72.5725ZM83.904 50.8976C86.1607 48.7163 89.1807 47.5071 92.3169 47.5294C95.145 47.5198 97.8898 48.4876 100.088 50.2697C100.816 50.8644 101.729 51.1856 102.669 51.1777C103.608 51.1697 104.515 50.8332 105.233 50.2263C107.542 48.336 110.456 47.3482 113.436 47.4461C116.416 47.5439 119.259 48.7209 121.439 50.7586C122.536 51.7776 123.415 53.0096 124.022 54.3795C124.628 55.7494 124.951 57.2286 124.968 58.7272C124.981 60.1881 124.697 61.6364 124.133 62.9839C123.569 64.3315 122.738 65.55 121.689 66.5656L103.188 84.7225L84.1539 66.7046C83.0567 65.6854 82.178 64.4532 81.5712 63.0832C80.9645 61.7131 80.6424 60.2337 80.6245 58.735C80.6119 57.2742 80.8961 55.8261 81.4599 54.4787C82.0237 53.1313 82.8552 51.9129 83.904 50.8976Z" fill="#A93A63"/>
<path d="M102.797 18.1688C103.866 18.1687 104.891 17.7434 105.647 16.9862C106.403 16.229 106.828 15.2021 106.828 14.1313V6.0563C106.828 4.98549 106.403 3.95853 105.647 3.20136C104.891 2.44418 103.866 2.0188 102.797 2.0188C101.727 2.0188 100.702 2.44418 99.9461 3.20136C99.1901 3.95853 98.7654 4.98549 98.7654 6.0563V14.1313C98.7654 15.2021 99.1902 16.229 99.9462 16.9862C100.702 17.7434 101.727 18.1687 102.797 18.1688Z" fill="#A93A63"/>
<path d="M147.14 62.5812C147.14 63.652 147.565 64.6789 148.321 65.4361C149.077 66.1933 150.102 66.6186 151.172 66.6187H159.234C160.303 66.6187 161.329 66.1933 162.085 65.4361C162.841 64.679 163.265 63.652 163.265 62.5812C163.265 61.5104 162.841 60.4834 162.085 59.7263C161.329 58.9691 160.303 58.5437 159.234 58.5437H151.172C150.102 58.5438 149.077 58.9691 148.321 59.7263C147.565 60.4835 147.14 61.5104 147.14 62.5812Z" fill="#A93A63"/>
<path d="M46.3591 66.6187H54.4216C55.4908 66.6187 56.5161 66.1933 57.2722 65.4361C58.0282 64.679 58.4529 63.652 58.4529 62.5812C58.4529 61.5104 58.0282 60.4834 57.2722 59.7263C56.5161 58.9691 55.4908 58.5437 54.4216 58.5437H46.3591C45.29 58.5437 44.2646 58.9691 43.5086 59.7263C42.7526 60.4834 42.3279 61.5104 42.3279 62.5812C42.3279 63.652 42.7526 64.679 43.5086 65.4361C44.2646 66.1933 45.29 66.6187 46.3591 66.6187Z" fill="#A93A63"/>
<path d="M151.012 87.1836C151.942 87.1837 152.842 86.8622 153.562 86.2735C154.282 85.6848 154.777 84.8651 154.963 83.9531C155.149 83.0411 155.015 82.0927 154.583 81.2685C154.151 80.4443 153.448 79.7948 152.593 79.43L148.882 77.8479C147.899 77.4311 146.791 77.422 145.801 77.8226C144.811 78.2233 144.02 79.001 143.602 79.9851C143.183 80.9692 143.172 82.0792 143.57 83.0715C143.968 84.0639 144.743 84.8575 145.725 85.2782L149.436 86.8603C149.934 87.0737 150.47 87.1837 151.012 87.1836Z" fill="#A93A63"/>
<path d="M53.0004 45.7323L56.7108 47.3144C57.6939 47.7298 58.8014 47.7379 59.7904 47.337C60.7795 46.936 61.5695 46.1587 61.9873 45.1754C62.4051 44.1921 62.4167 43.083 62.0195 42.0911C61.6222 41.0993 60.8486 40.3056 59.8681 39.8841L56.1577 38.302C55.1743 37.8852 54.066 37.8761 53.0759 38.2767C52.0859 38.6774 51.295 39.4551 50.8769 40.4392C50.4587 41.4232 50.4475 42.5333 50.8456 43.5256C51.2437 44.518 52.0187 45.3116 53.0004 45.7323Z" fill="#A93A63"/>
<path d="M143.93 45.9915C144.127 46.4836 144.42 46.9318 144.791 47.3106C145.161 47.6894 145.603 47.9913 146.09 48.1991C146.577 48.4069 147.1 48.5165 147.63 48.5217C148.159 48.5268 148.685 48.4274 149.176 48.2291L152.916 46.721C153.905 46.3194 154.695 45.541 155.113 44.5567C155.53 43.5724 155.54 42.4625 155.141 41.4705C154.743 40.4785 153.967 39.6855 152.985 39.2653C152.004 38.8452 150.895 38.8323 149.904 39.2295L146.164 40.7377C145.172 41.1379 144.38 41.9162 143.961 42.9014C143.542 43.8866 143.531 44.9981 143.93 45.9915Z" fill="#A93A63"/>
<path d="M61.6633 79.1708C61.2637 78.1776 60.4866 77.3839 59.503 76.9643C58.5193 76.5447 57.4095 76.5336 56.4175 76.9333L52.6776 78.4414C52.1865 78.6395 51.7391 78.9325 51.361 79.3037C50.983 79.6749 50.6816 80.1171 50.4741 80.6049C50.2667 81.0928 50.1572 81.6168 50.1519 82.1471C50.1467 82.6773 50.2457 83.2034 50.4435 83.6953C50.6412 84.1872 50.9338 84.6352 51.3044 85.0139C51.6751 85.3926 52.1166 85.6944 52.6037 85.9022C53.0908 86.11 53.614 86.2196 54.1434 86.2249C54.6728 86.2301 55.1981 86.1309 55.6892 85.9329L59.4292 84.4247C60.4208 84.0245 61.2132 83.2462 61.6322 82.261C62.0511 81.2758 62.0623 80.1643 61.6633 79.1708Z" fill="#A93A63"/>
<path d="M119.361 103.778C118.369 104.179 117.577 104.957 117.158 105.942C116.739 106.927 116.727 108.039 117.126 109.032L118.632 112.778C119.032 113.771 119.809 114.565 120.792 114.985C121.776 115.405 122.886 115.416 123.878 115.016C124.87 114.616 125.663 113.837 126.082 112.852C126.5 111.867 126.512 110.755 126.112 109.762L124.606 106.016C124.207 105.023 123.43 104.229 122.446 103.809C121.462 103.39 120.352 103.379 119.361 103.778Z" fill="#A93A63"/>
<path d="M80.9869 19.1467C81.1841 19.6393 81.4764 20.0882 81.847 20.4676C82.2175 20.8471 82.6592 21.1496 83.1466 21.3579C83.634 21.5663 84.1577 21.6763 84.6876 21.6818C85.2175 21.6872 85.7433 21.588 86.2349 21.3898C86.7265 21.1915 87.1742 20.8982 87.5525 20.5265C87.9308 20.1547 88.2322 19.712 88.4395 19.2235C88.6468 18.735 88.7559 18.2104 88.7606 17.6797C88.7653 17.1489 88.6654 16.6224 88.4668 16.1304L86.961 12.3847C86.7637 11.892 86.4715 11.4431 86.1009 11.0637C85.7303 10.6843 85.2887 10.3817 84.8013 10.1734C84.3139 9.96508 83.7902 9.85504 83.2603 9.84958C82.7304 9.84412 82.2046 9.94334 81.713 10.1416C81.2214 10.3398 80.7737 10.6332 80.3954 11.0049C80.0171 11.3766 79.7157 11.8194 79.5084 12.3078C79.3011 12.7963 79.192 13.3209 79.1873 13.8517C79.1826 14.3824 79.2825 14.9089 79.4811 15.401L80.9869 19.1467Z" fill="#A93A63"/>
<path d="M120.172 21.7203C120.659 21.9283 121.182 22.038 121.711 22.0433C122.241 22.0486 122.766 21.9493 123.257 21.7511C123.748 21.5529 124.195 21.2597 124.573 20.8882C124.951 20.5167 125.252 20.0743 125.459 19.5862L127.037 15.871C127.245 15.3832 127.354 14.8593 127.36 14.3291C127.365 13.7989 127.266 13.2728 127.068 12.781C126.87 12.2891 126.578 11.8411 126.207 11.4625C125.836 11.0839 125.395 10.7822 124.908 10.5745C124.421 10.3668 123.898 10.2573 123.368 10.2521C122.839 10.247 122.314 10.3464 121.823 10.5446C121.332 10.7428 120.884 11.0359 120.506 11.4073C120.129 11.7786 119.827 12.2209 119.62 12.7088L118.042 16.424C117.834 16.9118 117.725 17.4358 117.719 17.966C117.714 18.4962 117.813 19.0222 118.011 19.514C118.209 20.0059 118.501 20.4539 118.872 20.8324C119.243 21.211 119.684 21.5127 120.172 21.7203Z" fill="#A93A63"/>
<path d="M80.1346 105.576L78.556 109.291C78.3484 109.779 78.2389 110.303 78.2336 110.833C78.2283 111.364 78.3273 111.89 78.5251 112.381C78.7228 112.873 79.0153 113.321 79.386 113.7C79.7566 114.079 80.1981 114.38 80.6852 114.588C81.1723 114.796 81.6955 114.905 82.2249 114.91C82.7543 114.915 83.2795 114.816 83.7705 114.618C84.2615 114.42 84.7087 114.126 85.0866 113.755C85.4645 113.384 85.7656 112.942 85.9728 112.454L87.5515 108.738C87.759 108.251 87.8685 107.727 87.8738 107.197C87.8791 106.666 87.7801 106.14 87.5824 105.648C87.3846 105.157 87.0921 104.709 86.7214 104.33C86.3508 103.951 85.9093 103.65 85.4222 103.442C84.9351 103.234 84.4119 103.125 83.8826 103.12C83.3532 103.114 82.828 103.214 82.3369 103.412C81.8459 103.61 81.3987 103.903 81.0208 104.275C80.6429 104.646 80.3418 105.088 80.1346 105.576Z" fill="#A93A63"/>
<path d="M137.003 32.3592C137.533 32.3599 138.057 32.2557 138.546 32.0527C139.035 31.8497 139.48 31.5519 139.853 31.1764L145.554 25.4671C146.307 24.7095 146.73 23.6834 146.729 22.614C146.728 21.5447 146.303 20.5194 145.548 19.7632C144.793 19.0071 143.77 18.5818 142.702 18.5808C141.634 18.5798 140.61 19.0031 139.853 19.7578L134.153 25.4671C133.589 26.0317 133.205 26.7511 133.05 27.5342C132.894 28.3173 132.974 29.129 133.279 29.8667C133.584 30.6044 134.101 31.2349 134.764 31.6786C135.427 32.1222 136.206 32.3591 137.003 32.3592Z" fill="#A93A63"/>
<path d="M62.8895 106.588C63.419 106.588 63.9434 106.484 64.4325 106.281C64.9216 106.078 65.3659 105.78 65.7397 105.405L71.4402 99.6956C72.1928 98.9378 72.6146 97.912 72.6132 96.8432C72.6117 95.7744 72.1872 94.7497 71.4326 93.994C70.678 93.2382 69.6549 92.813 68.5877 92.8115C67.5206 92.8101 66.4964 93.2326 65.7398 93.9863L60.0394 99.6956C59.4758 100.26 59.0919 100.98 58.9364 101.763C58.7809 102.546 58.8608 103.357 59.1658 104.095C59.4709 104.833 59.9874 105.463 60.6502 105.907C61.3131 106.351 62.0923 106.588 62.8895 106.588Z" fill="#A93A63"/>
<path d="M139.853 93.9863C139.097 93.2316 138.072 92.8083 137.005 92.8093C135.937 92.8103 134.913 93.2356 134.158 93.9918C133.403 94.7479 132.979 95.7732 132.978 96.8426C132.977 97.9119 133.399 98.938 134.153 99.6956L139.853 105.405C140.61 106.16 141.634 106.583 142.702 106.582C143.77 106.581 144.793 106.156 145.548 105.399C146.303 104.643 146.728 103.618 146.729 102.549C146.73 101.479 146.307 100.453 145.554 99.6956L139.853 93.9863Z" fill="#A93A63"/>
<path d="M65.7399 31.1764C66.4963 31.9311 67.5208 32.3544 68.5885 32.3534C69.6562 32.3524 70.6799 31.9271 71.4349 31.1709C72.1899 30.4148 72.6145 29.3895 72.6155 28.3202C72.6165 27.2508 72.1939 26.2247 71.4403 25.4671L65.7399 19.7578C64.9831 19.0048 63.9591 18.583 62.8924 18.5847C61.8256 18.5865 60.8031 19.0117 60.0488 19.7672C59.2945 20.5226 58.8699 21.5468 58.8682 22.6152C58.8664 23.6836 59.2876 24.7091 60.0395 25.4671L65.7399 31.1764Z" fill="#A93A63"/>
<path d="M98.7654 111.031V119.106C98.7714 119.283 98.7891 119.459 98.8184 119.633L106.775 119.633C106.804 119.458 106.822 119.283 106.828 119.106V111.031C106.828 109.96 106.403 108.933 105.647 108.176C104.891 107.419 103.866 106.994 102.797 106.994C101.727 106.994 100.702 107.419 99.9461 108.176C99.1901 108.933 98.7654 109.96 98.7654 111.031Z" fill="#A93A63"/>
<path d="M6.59382 152.937L10.7137 149.542C11.3227 149.379 11.9663 149.399 12.5639 149.6C13.1616 149.801 13.6868 150.174 14.0737 150.673L47.5875 185.189C48.0993 185.72 48.3837 186.431 48.38 187.169C48.3763 187.907 48.0849 188.614 47.5678 189.141L41.767 194.993C41.3932 195.369 41.097 195.815 40.8955 196.306C40.694 196.796 40.591 197.322 40.5925 197.853C40.594 198.383 40.6999 198.908 40.9041 199.398C41.1084 199.887 41.407 200.332 41.7829 200.706C42.1588 201.08 42.6047 201.376 43.0949 201.577C43.5851 201.778 44.1101 201.881 44.6399 201.878C45.1697 201.876 45.6938 201.769 46.1824 201.564C46.6709 201.359 47.1143 201.059 47.4871 200.682L53.2899 194.829C54.8362 193.247 55.8664 191.233 56.2442 189.051C56.6221 186.87 56.3296 184.626 55.4057 182.615L58.1006 180.203H109.387C112.127 180.116 114.797 179.309 117.128 177.865L144.599 159.538C146.792 157.98 148.559 155.895 149.737 153.475L158.65 133.544C159.087 132.642 159.288 131.642 159.233 130.641C159.179 129.639 158.87 128.667 158.337 127.818C157.769 126.972 156.995 126.284 156.089 125.819C155.183 125.355 154.173 125.129 153.156 125.163H139.194C137.699 125.194 136.227 125.53 134.866 126.15C133.248 126.865 131.315 128.517 127.14 134.259L124.963 137.256C124.963 137.292 124.969 137.327 124.969 137.363V145.79C124.969 145.825 124.963 145.86 124.963 145.895H126.604C127.24 145.895 127.867 145.745 128.433 145.456C129 145.167 129.49 144.748 129.864 144.233L133.659 139.012C134.971 136.995 136.514 135.138 138.257 133.48C138.554 133.349 138.871 133.267 139.194 133.238H149.953L142.377 150.178C141.821 151.206 141.056 152.105 140.131 152.817L112.664 171.142C111.657 171.708 110.538 172.044 109.387 172.128H56.5612C55.5701 172.128 54.6138 172.494 53.8744 173.155L50.2763 176.375L23.3424 148.637L41.8318 132.125C42.5599 131.617 43.4057 131.306 44.2884 131.219H71.8733C73.3385 131.277 74.788 131.543 76.1782 132.01L82.5774 134.459C84.8885 135.276 87.3138 135.723 89.7639 135.783H106.911C107.374 135.747 107.833 135.891 108.193 136.185C108.553 136.479 108.786 136.901 108.844 137.363V145.79C108.786 146.251 108.553 146.673 108.193 146.967C107.833 147.261 107.374 147.405 106.911 147.369H72.6193C71.5502 147.369 70.5248 147.794 69.7688 148.551C69.0128 149.309 68.5881 150.335 68.5881 151.406C68.5881 152.477 69.0128 153.504 69.7688 154.261C70.5248 155.018 71.5502 155.444 72.6193 155.444H106.911C109.513 155.487 112.027 154.495 113.9 152.686C115.774 150.876 116.855 148.396 116.906 145.79V137.363C116.855 134.756 115.774 132.276 113.901 130.466C112.027 128.656 109.513 127.664 106.911 127.708H89.764C88.2981 127.65 86.8479 127.383 85.4571 126.916L79.0579 124.468C76.7475 123.651 74.3228 123.204 71.8733 123.144H44.2884C41.425 123.236 38.6728 124.276 36.4621 126.101L17.4731 143.06C17.4496 143.081 17.4336 143.107 17.4107 143.128C15.6674 141.923 13.5921 141.293 11.474 141.324C9.3559 141.356 7.30043 142.049 5.59389 143.306L1.46815 146.703C1.05947 147.041 0.721089 147.455 0.472318 147.923C0.223547 148.391 0.0692608 148.904 0.0182678 149.431C-0.0847172 150.497 0.239286 151.56 0.919001 152.387C1.59872 153.214 2.57846 153.736 3.64271 153.839C4.70696 153.942 5.76846 153.618 6.59382 152.937Z" fill="#A93A63"/>
</g>
<defs>
<clipPath id="clip0_333_318">
<rect width="258" height="323" fill="white"/>
</clipPath>
</defs>
</svg>
