<svg width="52" height="52" viewBox="0 0 52 52" fill="none" xmlns="http://www.w3.org/2000/svg">
<path d="M17.3299 5.2C10.641 5.2 5.19995 10.646 5.19995 17.3367V34.6701C5.19995 41.359 10.646 46.8 17.3367 46.8H34.67C41.3589 46.8 46.8 41.3539 46.8 34.6633V17.3299C46.8 10.641 41.3539 5.2 34.6632 5.2H17.3299ZM38.1333 12.1333C39.0901 12.1333 39.8666 12.9099 39.8666 13.8667C39.8666 14.8235 39.0901 15.6 38.1333 15.6C37.1765 15.6 36.4 14.8235 36.4 13.8667C36.4 12.9099 37.1765 12.1333 38.1333 12.1333ZM26 15.6C31.7356 15.6 36.4 20.2644 36.4 26C36.4 31.7356 31.7356 36.4 26 36.4C20.2644 36.4 15.6 31.7356 15.6 26C15.6 20.2644 20.2644 15.6 26 15.6ZM26 19.0667C24.1611 19.0667 22.3976 19.7971 21.0973 21.0974C19.7971 22.3976 19.0666 24.1612 19.0666 26C19.0666 27.8388 19.7971 29.6024 21.0973 30.9026C22.3976 32.2029 24.1611 32.9333 26 32.9333C27.8388 32.9333 29.6023 32.2029 30.9026 30.9026C32.2028 29.6024 32.9333 27.8388 32.9333 26C32.9333 24.1612 32.2028 22.3976 30.9026 21.0974C29.6023 19.7971 27.8388 19.0667 26 19.0667Z" fill="#FAF5EC"/>
</svg>
