<svg width="160" height="162" viewBox="0 0 160 162" fill="none" xmlns="http://www.w3.org/2000/svg">
<path d="M87.849 42.1731C90.4043 46.8599 95.3761 50.3518 98.0391 51.4358C102.48 53.2341 104.678 54.3673 108.92 53.3819C110.665 52.9816 114.663 51.1586 119.577 47.9377C124.409 44.766 126.673 42.9922 128.606 40.3132C130.54 37.628 133.142 31.2354 131.16 27.8235C129.935 25.7111 126.626 23.1676 123.557 21.4924C120.82 20.002 120.963 23.1368 118.049 24.7072C116.691 25.434 114.009 25.2985 111.164 24.7072C109.611 24.3808 104.418 23.6233 102.443 24.2453C100.485 24.8674 98.0157 28.076 98.5429 26.5856C99.1723 24.7996 100.673 23.5555 101.173 23.1429C104.336 20.5255 116.954 24.6703 117.796 22.872C120.685 16.6887 118.4 16.4731 113.504 14.6255C111.355 13.8187 96.8111 10.7456 93.0519 16.3807C88.9059 22.601 85.2938 37.4802 87.849 42.1731Z" fill="white"/>
<path d="M137.728 20.7588C135.13 23.8763 133.193 25.58 131.081 24.296C129.025 23.0429 126.344 21.302 128.297 18.7093C136.085 8.38163 141.809 15.8573 137.728 20.7588Z" fill="white"/>
<path d="M129.515 13.5575C127.485 17.6906 125.176 20.554 122.539 19.0974C120.904 18.1948 121.834 16.8005 120.854 15.8046C120.008 14.9393 117.582 14.0243 118.251 12.4682C124.008 -0.964512 132.707 7.05901 129.515 13.5575Z" fill="white"/>
<path d="M118.143 8.47818C116.915 13.2711 115.809 12.8603 112.727 12.1196C109.572 11.3602 106.286 11.9702 107.003 9.26872C111.035 -5.92555 120.073 0.940182 118.143 8.47818Z" fill="white"/>
<path d="M105.762 7.26443C104.854 11.9889 104.827 10.6195 101.043 10.7129C95.9128 10.8374 94.1606 13.5202 94.694 9.72315C96.821 -5.42133 107.189 -0.155308 105.762 7.26443Z" fill="white"/>
<path d="M96.5875 122.788C95.6909 124.129 94.6483 125.31 93.4972 126.269C92.4861 127.116 91.3988 127.79 90.3127 128.451C87.1974 130.335 83.7828 131.158 80.4124 131.646C74.0315 132.57 69.7568 130.067 63.4296 131.646C61.2054 132.201 59.0833 133.173 57.0028 134.401C55.4893 135.301 53.1334 136.582 51.4959 136.696C49.8667 136.815 47.5472 136.308 46.9111 134.418C46.9087 134.412 46.9159 134.401 46.9248 134.401C51.3081 134.448 51.1716 134.734 55.1674 132.105C56.269 131.384 60.4209 129.393 61.5935 128.892C64.4137 127.688 68.307 126.937 71.2321 127.056C74.9936 127.211 78.9775 127.122 82.7074 126.138C86.2943 125.196 90.0939 122.395 92.8015 119.259C92.8039 119.259 92.8051 119.253 92.8045 119.247C91.0883 109.173 91.5515 93.3279 92.4629 83.6768C93.0274 77.7037 95.0977 70.2522 96.0146 66.0257C96.017 66.0198 96.0098 66.0138 96.0015 66.0138C93.6712 66.139 91.3064 66.896 85.0019 65.0958C78.5763 63.2597 75.8223 60.5056 70.7731 55.4565C65.023 49.704 60.7607 42.9321 62.0525 43.0632C66.6426 43.5223 65.6721 43.5401 71.6912 43.9812C76.2693 44.3151 79.4944 44.4403 86.8385 47.1943C95.1121 50.2286 101.558 64.0466 101.848 64.6785C101.853 64.6844 101.864 64.6904 101.869 64.6785C102.048 64.3268 104.643 59.5579 116.863 52.2852C119.51 50.7115 125.486 47.5758 132.504 47.7666C139.401 47.9573 142.97 49.2211 146.626 49.5669C149.364 49.8232 139.827 58.9379 136.87 60.9647C133.379 63.3551 129.066 66.908 120.805 67.3908C114.783 67.7425 111.245 66.2821 107.679 66.6278C107.674 66.6338 107.669 66.6338 107.667 66.6397C106.633 72.1479 106.656 81.3161 106.083 87.3787C105.437 94.2221 103.95 111.688 104.28 119.712C104.28 119.712 104.282 119.718 104.284 119.718C105.882 121.286 107.495 122.925 108.87 123.843C112.89 126.526 117.089 128.249 125.351 128.249C130.135 128.249 132.801 128.183 136.87 131.187C138.253 132.213 139.729 133.173 141.001 134.401C141.947 135.319 143.807 136.678 145.184 138.514C145.479 138.907 145.145 139.056 144.725 138.973C140.135 138.055 136.099 134.496 131.777 133.298C130.448 132.928 128.101 132.851 126.728 132.839C122.896 132.791 119.843 132.38 116.171 131.921C114.366 131.694 110.129 130.013 108.411 129.351C107.063 128.839 103.194 126.854 101.798 125.53C101.789 125.518 101.777 125.53 101.779 125.542C102.451 129 103.524 131.199 105.251 133.924C108.937 139.748 114.506 143.724 119.48 147.694C122.052 149.751 124.377 151.652 126.365 154.579C127.611 156.409 129.207 159.014 128.364 161.297C128.361 161.309 128.347 161.309 128.341 161.303C122.449 153.667 114.425 149.983 107.545 144.022C104.882 141.715 102.693 139.414 101.319 135.849C101.063 135.193 100.701 134.442 100.122 134.466C99.512 134.484 99.1269 135.342 98.8521 136.058C96.9219 141.113 94.0402 143.378 90.1035 145.858C87.6958 147.378 83.0579 149.691 80.4642 150.448C75.6738 151.849 72.6068 153.858 67.8247 155.265C67.8128 155.271 67.8027 155.253 67.8098 155.247C71.9994 149.25 78.6574 147.777 84.3295 144.451C88.0391 142.269 91.5115 139.092 93.8554 134.776C95.7648 131.253 96.8432 126.919 96.5875 122.788Z" fill="white"/>
<path d="M34.8858 115.281C34.8858 116.236 34.5905 117.197 33.7796 117.716C26.1832 122.656 18.3648 126.122 12.3908 126.122C9.146 126.122 2.80265 122.731 2.35991 120.885C0.737519 114.395 0 107.387 0 100.309C0 90.4991 1.47502 71.7644 3.02401 68.2225C3.68811 66.603 7.52301 65.0534 10.2517 65.0534C13.1283 65.0534 13.7184 66.3059 13.7184 70.5876C13.7184 76.9257 11.8747 88.8738 11.8747 106.28C11.8747 109.595 12.0215 113.207 12.463 115.933C12.4636 115.939 12.4694 115.945 12.4753 115.945H13.2023C18.7336 115.945 28.7644 113.655 33.1155 111.593C33.1895 111.593 33.2629 111.517 33.2629 111.517C33.4842 111.517 33.7056 111.739 33.927 112.036C34.3691 112.548 34.8858 113.952 34.8858 115.281Z" fill="white"/>
<path d="M58.6448 125.901C40.1336 125.61 40.2781 98.3006 40.2781 88.281C40.2781 78.6984 40.9294 70.409 41.9413 69.5468C42.737 68.9002 45.1953 68.4633 47.5097 68.4633C49.3889 68.4633 51.1243 68.7546 51.8484 69.3313C52.2095 69.6167 52.354 72.576 52.354 76.6071C52.354 82.2286 52.1373 90.0869 52.1373 96.0637C52.1373 106.584 54.4505 116.388 59.0787 116.388C63.4897 116.388 65.7307 105.792 66.3814 96.8559C67.1771 86.2655 66.2369 69.4769 67.9 67.7468C69.1291 66.4477 73.1061 65.0788 75.4927 65.0788C77.951 65.0788 78.1683 66.4478 78.1683 76.7528C78.1683 81.6519 77.951 87.9956 77.5176 95.417C76.6496 108.675 74.5525 125.901 58.6448 125.901Z" fill="white"/>
<path d="M140.906 84.1393C139.102 87.5879 136.439 94.9219 133.974 102.407C133.971 102.413 133.977 102.419 133.986 102.419C137.916 102.425 141.513 102.78 144.183 103.415C144.192 103.421 144.199 103.415 144.198 103.404C142.52 93.9491 141.031 84.7626 140.93 84.1393C140.927 84.1276 140.912 84.1276 140.906 84.1393ZM152.962 125.744C151.023 125.744 149.217 125.383 148.481 124.672C148.08 124.241 147.078 119.382 145.874 113.161C145.873 113.155 145.87 113.149 145.865 113.149C142.789 112.433 138.446 111.792 134.771 111.792C133.437 111.792 132.168 111.862 130.967 111.932C130.962 111.938 130.957 111.938 130.956 111.944C129.486 117.017 128.284 121.311 127.949 123.524C127.615 125.313 125.475 125.959 123.267 125.959C120.526 125.959 118.519 125.027 118.519 123.524C118.519 121.881 119.388 117.949 120.722 112.881C120.724 112.87 120.721 112.864 120.713 112.864C119.624 112.835 115.71 109.206 115.71 105.926C115.71 103.712 119.65 103.497 123.46 103.066C123.465 103.066 123.469 103.06 123.471 103.054C128.019 87.8209 134.437 69.3721 136.71 67.7236C137.915 66.7973 142.328 65.1488 144.936 65.0788C145.672 65.0788 146.273 65.2944 146.608 65.5798C146.608 65.5798 146.609 65.5798 146.61 65.5798C148.751 67.741 159.315 121.596 159.315 123.67C159.315 124.957 155.971 125.744 152.962 125.744Z" fill="white"/>
</svg>
