<svg width="52" height="52" viewBox="0 0 52 52" fill="none" xmlns="http://www.w3.org/2000/svg">
<path d="M35.5398 19.5H30.3333V15.1667C30.3333 12.9307 30.5153 11.5223 33.7198 11.5223H35.6005C36.7965 11.5223 37.7671 10.5517 37.7671 9.35567V6.63867C37.7671 5.5055 36.8983 4.537 35.7673 4.46117C34.4586 4.37233 33.1478 4.33117 31.8348 4.33333C25.9566 4.33333 21.6666 7.9235 21.6666 14.5145V19.5H17.3333C16.1373 19.5 15.1666 20.4707 15.1666 21.6667V26C15.1666 27.196 16.1373 28.1667 17.3333 28.1667L21.6666 28.1645V45.5C21.6666 46.696 22.6373 47.6667 23.8333 47.6667H28.1666C29.3626 47.6667 30.3333 46.696 30.3333 45.5V28.1602L35.0436 28.158C36.1443 28.158 37.0695 27.3325 37.1951 26.2383L37.6913 21.9137C37.8408 20.6288 36.8355 19.5 35.5398 19.5Z" fill="#FAF5EC"/>
</svg>
