<svg xmlns="http://www.w3.org/2000/svg" width="908" height="497" fill="none"><path fill="#73833D" d="M908 458H0v-96l908 96Z"/><path fill="#485023" d="M136.926 129.724c7.86 14.417 23.154 25.158 31.345 28.492 13.659 5.532 20.422 9.018 33.468 5.987 5.369-1.232 17.666-6.839 32.783-16.747 14.863-9.756 21.825-15.212 27.772-23.453 5.948-8.259 13.954-27.923 7.856-38.418-3.766-6.498-13.947-14.322-23.386-19.474-8.419-4.585-7.98 5.058-16.944 9.888-4.177 2.236-12.425 1.819-21.177 0-4.776-1.004-20.75-3.334-26.825-1.42-6.022 1.913-13.619 11.783-11.997 7.198 1.936-5.493 6.55-9.32 8.089-10.59 9.729-8.05 48.542 4.699 51.133-.833 8.887-19.02 1.859-19.683-13.204-25.366-6.607-2.482-51.346-11.935-62.909 5.399-12.753 19.133-23.864 64.902-16.004 79.337ZM290.353 63.854c-7.989 9.59-13.949 14.83-20.443 10.88-6.327-3.854-14.574-9.209-8.564-17.184 23.954-31.768 41.562-8.773 29.007 6.304Z"/><path fill="#485023" d="M265.091 41.703c-6.244 12.713-13.347 21.52-21.46 17.04-5.03-2.776-2.169-7.065-5.183-10.129-2.602-2.661-10.063-5.475-8.005-10.262 17.707-41.32 44.465-16.639 34.648 3.35ZM230.11 26.079c-3.778 14.743-7.18 13.48-16.66 11.2-9.705-2.335-19.811-.459-17.607-8.769 12.403-46.737 40.204-25.618 34.267-2.431ZM192.026 22.346c-2.791 14.532-2.875 10.32-14.515 10.607-15.781.383-21.171 8.635-19.53-3.045 6.543-46.584 38.434-30.386 34.045-7.563ZM163.806 377.697c-2.758 4.125-5.965 7.756-9.506 10.708-3.11 2.604-6.454 4.676-9.795 6.711-9.583 5.795-20.086 8.325-30.454 9.829-19.627 2.842-32.776-4.859-52.239 0-6.841 1.705-13.369 4.694-19.768 8.472-4.656 2.768-11.903 6.711-16.94 7.059-5.011.367-12.146-1.192-14.103-7.004-.007-.019.015-.055.043-.055 13.482.146 13.063 1.026 25.354-7.06 3.388-2.219 16.16-8.343 19.766-9.884 8.675-3.704 20.651-6.014 29.649-5.647 11.57.477 23.825.201 35.298-2.824 11.033-2.897 22.721-11.515 31.049-21.16.008 0 .011-.019.01-.037-5.28-30.989-3.855-79.728-1.051-109.415 1.736-18.373 8.105-41.294 10.925-54.294.007-.019-.015-.037-.041-.037-7.167.385-14.441 2.714-33.834-2.824-19.765-5.648-28.237-14.119-43.768-29.65-17.687-17.695-30.798-38.526-26.825-38.122 14.12 1.412 11.134 1.467 29.649 2.824 14.082 1.026 24.003 1.412 46.593 9.883 25.45 9.333 45.279 51.838 46.17 53.781.015.019.049.037.064 0 .552-1.081 8.532-15.751 46.12-38.121 8.144-4.841 26.526-14.486 48.112-13.9 21.217.587 32.195 4.475 43.441 5.538 8.42.789-20.914 28.825-30.011 35.06-10.736 7.353-24.005 18.281-49.416 19.767-18.523 1.081-29.404-3.411-40.373-2.348-.017.019-.033.019-.037.037-3.181 16.943-3.111 45.145-4.874 63.793-1.987 21.051-6.561 74.777-5.545 99.458 0 0 .004.018.011.018 4.916 4.823 9.876 9.865 14.109 12.689 12.362 8.252 25.28 13.551 50.693 13.551 14.717 0 22.917-.202 35.432 9.04 4.254 3.154 8.796 6.106 12.707 9.884 2.91 2.823 8.631 7.004 12.867 12.652.909 1.21-.119 1.668-1.412 1.412-14.119-2.824-26.533-13.771-39.827-17.457-4.089-1.137-11.308-1.375-15.531-1.412-11.787-.146-21.177-1.412-32.473-2.824-5.554-.696-18.586-5.867-23.868-7.903-4.148-1.577-16.049-7.683-20.343-11.753-.028-.037-.064 0-.059.036 2.067 10.635 5.367 17.402 10.68 25.782 11.339 17.914 28.469 30.145 43.767 42.357 7.913 6.326 15.066 12.176 21.179 21.179 3.834 5.629 8.743 13.642 6.15 20.665-.011.037-.051.037-.07.019-18.125-23.49-42.808-34.822-63.969-53.158-8.192-7.097-14.924-14.174-19.15-25.14-.789-2.017-1.904-4.327-3.682-4.254-1.878.055-3.063 2.696-3.908 4.896-5.937 15.55-14.801 22.517-26.911 30.145-7.406 4.676-21.672 11.791-29.65 14.12-14.735 4.309-24.17 10.488-38.88 14.816-.036.018-.067-.037-.045-.055 12.887-18.447 33.367-22.976 50.814-33.208 11.411-6.711 22.092-16.485 29.302-29.76 5.873-10.837 9.191-24.168 8.404-36.875Z"/></svg>